<svg viewBox="0 0 27 27" fill="none" xmlns="http://www.w3.org/2000/svg">
<path fill-rule="evenodd" clip-rule="evenodd" d="M14 0C13.448 0 13 0.336 13 0.75V5.25C13 5.664 13.448 6 14 6C14.552 6 15 5.664 15 5.25V0.75C15 0.336 14.552 0 14 0ZM4.78581 4C4.58074 4 4.3885 4.09477 4.2347 4.24916C3.92177 4.56115 3.92177 5.06053 4.2347 5.37252L7.61396 8.76601C7.92689 9.078 8.45237 9.078 8.7653 8.76601C9.07823 8.45403 9.07823 7.93015 8.7653 7.61817L5.36148 4.24916C5.20661 4.09477 4.9898 4 4.78581 4ZM23.2142 4C23.0102 4 22.7934 4.09477 22.6385 4.24916L19.2347 7.61817C18.9218 7.93015 18.9218 8.45403 19.2347 8.76601C19.5476 9.078 20.0731 9.078 20.386 8.76601L23.7653 5.37252C24.0782 5.06053 24.0782 4.56115 23.7653 4.24916C23.6115 4.09477 23.4193 4 23.2142 4ZM0.75 13C0.336 13 0 13.448 0 14C0 14.552 0.336 15 0.75 15H5.25C5.664 15 6 14.552 6 14C6 13.448 5.664 13 5.25 13H0.75ZM21.75 13C21.336 13 21 13.448 21 14C21 14.552 21.336 15 21.75 15H26.25C26.664 15 27 14.552 27 14C27 13.448 26.664 13 26.25 13H21.75ZM8.18963 19C7.98564 19 7.76882 19.0706 7.61396 19.2258L4.2347 22.636C3.92177 22.9495 3.92177 23.4513 4.2347 23.7649C4.54763 24.0784 5.04854 24.0784 5.36148 23.7649L8.7653 20.3793C9.07823 20.0658 9.07823 19.5393 8.7653 19.2258C8.6115 19.0706 8.39362 19 8.18963 19ZM19.8104 19C19.6064 19 19.3885 19.0706 19.2347 19.2258C18.9218 19.5393 18.9218 20.0658 19.2347 20.3793L22.6385 23.7649C22.9515 24.0784 23.4524 24.0784 23.7653 23.7649C24.0782 23.4513 24.0782 22.9495 23.7653 22.636L20.386 19.2258C20.2312 19.0706 20.0144 19 19.8104 19ZM14 21C13.448 21 13 21.336 13 21.75V26.25C13 26.664 13.448 27 14 27C14.552 27 15 26.664 15 26.25V21.75C15 21.336 14.552 21 14 21Z" fill="url(#paint0_angular_10014_66)"/>
<defs>
<radialGradient id="paint0_angular_10014_66" cx="0" cy="0" r="1" gradientUnits="userSpaceOnUse" gradientTransform="translate(13.5 13.5) scale(13.5)">
<stop offset="0.0279416" stop-color="currentColor"/>
<stop offset="0.934471" stop-color="currentColor" stop-opacity="0.187047"/>
</radialGradient>
</defs>
</svg>
